<svg xmlns="http://www.w3.org/2000/svg" viewBox="0 0 100 100">
  <!-- Foxglove — Tall Spike — Tier 2 Flower -->
  <ellipse cx="50" cy="92" rx="12" ry="3.5" fill="#7A5C2A" opacity="0.25"/>
  <!-- Main tall stem -->
  <path d="M50 90 C50 84 50 68 50 14" stroke="#5A7A30" stroke-width="2.8" stroke-linecap="round" fill="none"/>
  <!-- Leaf branches -->
  <path d="M50 83 C41 80 33 81 28 87" stroke="#5A7A30" stroke-width="2" stroke-linecap="round" fill="none"/>
  <path d="M50 74 C59 72 67 73 72 78" stroke="#5A7A30" stroke-width="2" stroke-linecap="round" fill="none"/>
  <path d="M50 65 C41 63 34 63 29 67" stroke="#5A7A30" stroke-width="1.8" stroke-linecap="round" fill="none"/>
  <path d="M50 58 C59 56 66 57 70 61" stroke="#5A7A30" stroke-width="1.6" stroke-linecap="round" fill="none"/>
  <!-- Large basal leaves -->
  <path d="M50 83 C41 79 32 78 28 85 C33 79 42 81 50 83Z" fill="#4A7A30"/>
  <path d="M28 85 C29 81 33 80 36 83 C33 84 30 85 28 85Z" fill="#3A6A20" opacity="0.7"/>
  <path d="M50 74 C59 71 68 70 72 76 C67 72 58 73 50 74Z" fill="#5C8A40"/>
  <path d="M50 65 C41 62 33 61 29 65 C34 62 42 63 50 65Z" fill="#4A7A30"/>
  <path d="M50 58 C59 55 67 56 70 60 C65 57 58 57 50 58Z" fill="#5C8A40"/>
  <!-- Leaf veins -->
  <path d="M28 85 L38 82 L50 83" stroke="#3A6A20" stroke-width="0.7" fill="none" opacity="0.5"/>
  <path d="M72 76 L61 73 L50 74" stroke="#3A6A20" stroke-width="0.7" fill="none" opacity="0.5"/>
  <!-- Flower pedicels (short horizontal stalks) -->
  <path d="M50 72 L40 70" stroke="#6B4820" stroke-width="1.3" stroke-linecap="round" fill="none"/>
  <path d="M50 65 L60 63" stroke="#6B4820" stroke-width="1.3" stroke-linecap="round" fill="none"/>
  <path d="M50 58 L41 56" stroke="#6B4820" stroke-width="1.2" stroke-linecap="round" fill="none"/>
  <path d="M50 51 L59 49" stroke="#6B4820" stroke-width="1.2" stroke-linecap="round" fill="none"/>
  <path d="M50 44 L42 42" stroke="#6B4820" stroke-width="1.1" stroke-linecap="round" fill="none"/>
  <path d="M50 38 L57 36" stroke="#6B4820" stroke-width="1" stroke-linecap="round" fill="none"/>
  <path d="M50 32 L44 30" stroke="#6B4820" stroke-width="1" stroke-linecap="round" fill="none"/>
  <!-- Bell flower 1 (lowest, largest, most open) -->
  <path d="M34 64 C30 62 28 58 30 53 C32 49 36 48 40 50 C37 50 34 53 33 57 C32 61 33 63 35 65 C34 65 34 65 34 64Z" fill="#C86878"/>
  <path d="M40 50 C44 49 46 52 45 56 C44 59 41 62 38 64 C40 63 42 61 43 57 C44 53 43 51 40 50Z" fill="#B85868"/>
  <path d="M35 65 C36 67 38 68 40 67 C41 65 40 63 38 64 C37 65 36 65 35 65Z" fill="#DC9098"/>
  <!-- Spots inside bell 1 -->
  <circle cx="35" cy="57" r="1" fill="#7A2030" opacity="0.6"/>
  <circle cx="37" cy="55" r="0.9" fill="#7A2030" opacity="0.6"/>
  <circle cx="39" cy="56" r="0.9" fill="#7A2030" opacity="0.6"/>
  <circle cx="36" cy="60" r="0.8" fill="#9A3040" opacity="0.5"/>
  <circle cx="38" cy="62" r="0.8" fill="#9A3040" opacity="0.5"/>
  <!-- Bell flower 2 -->
  <path d="M54 57 C58 55 60 51 58 46 C56 42 52 41 48 43 C51 43 54 46 55 50 C56 54 55 57 54 57Z" fill="#D47888"/>
  <path d="M48 43 C44 44 42 47 44 51 C45 55 48 58 51 57 C50 56 48 53 48 50 C48 46 49 44 48 43Z" fill="#C86878"/>
  <path d="M54 57 C53 59 51 60 49 59 C48 57 49 56 51 57 C52 57 53 57 54 57Z" fill="#DC9098"/>
  <circle cx="52" cy="49" r="0.9" fill="#7A2030" opacity="0.6"/>
  <circle cx="50" cy="48" r="0.9" fill="#7A2030" opacity="0.6"/>
  <circle cx="51" cy="52" r="0.8" fill="#9A3040" opacity="0.5"/>
  <!-- Bell flower 3 -->
  <path d="M35 50 C31 48 29 44 31 39 C33 35 37 34 41 36 C38 36 35 39 34 43 C33 47 34 50 35 50Z" fill="#E08898"/>
  <path d="M41 36 C45 35 47 38 46 42 C45 46 42 49 39 49 C41 48 43 46 44 42 C45 38 44 36 41 36Z" fill="#D07888"/>
  <path d="M35 50 C36 52 38 53 40 52 C41 50 40 49 39 49 C38 50 36 50 35 50Z" fill="#ECA0A8"/>
  <circle cx="36" cy="43" r="0.8" fill="#7A2030" opacity="0.6"/>
  <circle cx="38" cy="41" r="0.8" fill="#7A2030" opacity="0.6"/>
  <circle cx="39" cy="45" r="0.7" fill="#9A3040" opacity="0.5"/>
  <!-- Bell flower 4 -->
  <path d="M54 43 C58 41 60 37 58 32 C56 28 52 27 48 29 C51 29 54 32 55 36 C56 40 55 43 54 43Z" fill="#ECA0A8"/>
  <path d="M48 29 C44 30 42 33 44 37 C45 41 48 44 51 43 C50 42 48 39 48 36 C48 32 49 30 48 29Z" fill="#DC9098"/>
  <path d="M54 43 C53 45 51 46 49 45 C48 43 49 42 51 43 C52 43 53 43 54 43Z" fill="#F4B8C0"/>
  <!-- Bell flower 5 (small, half-open) -->
  <path d="M36 36 C33 34 31 30 33 26 C35 23 38 23 41 25 C39 25 37 28 36 31 C35 34 36 36 36 36Z" fill="#F0A8B8"/>
  <path d="M41 25 C44 24 46 27 45 30 C44 33 42 36 39 35 C41 34 43 32 43 29 C43 26 42 25 41 25Z" fill="#E498A8"/>
  <!-- Buds at tip -->
  <path d="M50 26 L46 24" stroke="#6B4820" stroke-width="1" stroke-linecap="round" fill="none"/>
  <ellipse cx="45" cy="22" rx="2.5" ry="3.5" fill="#5C8A40"/>
  <ellipse cx="45" cy="21" rx="2" ry="2.5" fill="#CC7888"/>
  <path d="M50 20 L53 18" stroke="#6B4820" stroke-width="1" stroke-linecap="round" fill="none"/>
  <ellipse cx="53" cy="16" rx="2.5" ry="3.5" fill="#5C8A40"/>
  <ellipse cx="53" cy="15" rx="1.8" ry="2.3" fill="#DC8898"/>
  <ellipse cx="50" cy="16" rx="2" ry="3" fill="#5C8A40"/>
  <ellipse cx="50" cy="14" rx="1.6" ry="2" fill="#ECA0A8"/>
</svg>
