<svg xmlns="http://www.w3.org/2000/svg" viewBox="0 0 100 100">
  <!-- Dahlia — Terracotta Geometric Bloom — Tier 2 Flower -->
  <ellipse cx="50" cy="92" rx="12" ry="3.5" fill="#7A5C2A" opacity="0.25"/>
  <!-- Stem -->
  <path d="M50 90 C50 84 50 76 50 63" stroke="#5A7A30" stroke-width="2.8" stroke-linecap="round" fill="none"/>
  <!-- Leaf branches -->
  <path d="M50 83 C42 80 35 81 30 86" stroke="#5A7A30" stroke-width="2" stroke-linecap="round" fill="none"/>
  <path d="M50 75 C58 72 65 73 70 78" stroke="#5A7A30" stroke-width="2" stroke-linecap="round" fill="none"/>
  <path d="M50 68 C43 65 37 63 34 68" stroke="#5A7A30" stroke-width="1.8" stroke-linecap="round" fill="none"/>
  <!-- Pinnate dahlia leaves -->
  <path d="M50 83 C42 79 33 78 30 84 C34 79 43 80 50 83Z" fill="#4A7A30"/>
  <path d="M50 75 C58 71 66 71 70 76 C65 72 57 73 50 75Z" fill="#5C8A40"/>
  <path d="M50 68 C43 64 36 62 34 66 C37 63 44 65 50 68Z" fill="#4A7A30"/>
  <!-- Leaf vein -->
  <path d="M30 84 L40 81 L50 83" stroke="#3A6A20" stroke-width="0.7" fill="none" opacity="0.5"/>
  <!-- Sepals -->
  <path d="M50 63 C46 61 43 57 45 53 C47 57 48 61 50 63Z" fill="#4A7A30"/>
  <path d="M50 63 C54 61 57 57 55 53 C53 57 52 61 50 63Z" fill="#4A7A30"/>
  <path d="M50 63 C48 59 47 54 50 52 C53 54 52 59 50 63Z" fill="#5C8A40"/>
  <path d="M50 63 C44 60 40 55 42 51 C44 55 46 60 50 63Z" fill="#4A7A30" opacity="0.7"/>
  <path d="M50 63 C56 60 60 55 58 51 C56 55 54 60 50 63Z" fill="#4A7A30" opacity="0.7"/>
  <!-- Dahlia bloom — many pointed quilled petals -->
  <!-- Outermost petal ring — deep terracotta (8 petals) -->
  <path d="M50 52 C48 45 46 35 50 24 C54 35 52 45 50 52Z" fill="#C8683A"/>
  <path d="M50 52 C55 47 63 40 73 35 C67 44 58 49 50 52Z" fill="#BC5C30"/>
  <path d="M50 52 C56 50 65 50 75 52 C65 54 56 54 50 52Z" fill="#C8683A"/>
  <path d="M50 52 C55 57 63 64 73 69 C65 60 58 55 50 52Z" fill="#BC5C30"/>
  <path d="M50 52 C48 59 46 69 50 79 C54 69 52 59 50 52Z" fill="#C8683A" opacity="0.85"/>
  <path d="M50 52 C45 57 37 64 27 69 C35 60 42 55 50 52Z" fill="#BC5C30"/>
  <path d="M50 52 C44 50 35 50 25 52 C35 54 44 54 50 52Z" fill="#C8683A"/>
  <path d="M50 52 C45 47 37 40 27 35 C33 44 42 49 50 52Z" fill="#BC5C30"/>
  <!-- Second ring — medium terracotta, rotated 22.5° -->
  <path d="M50 52 C49 46 48 37 50 29 C52 37 51 46 50 52Z" fill="#D8785A" opacity="0.92"/>
  <path d="M50 52 C55 48 60 43 68 40 C62 47 57 50 50 52Z" fill="#C8683A" opacity="0.92"/>
  <path d="M50 52 C55 52 62 52 71 54 C62 56 55 56 50 52Z" fill="#D8785A" opacity="0.92"/>
  <path d="M50 52 C55 57 60 62 68 65 C62 57 57 54 50 52Z" fill="#C8683A" opacity="0.92"/>
  <path d="M50 52 C49 58 48 67 50 75 C52 67 51 58 50 52Z" fill="#D8785A" opacity="0.85"/>
  <path d="M50 52 C45 57 40 62 32 65 C38 57 43 54 50 52Z" fill="#C8683A" opacity="0.92"/>
  <path d="M50 52 C45 52 38 52 29 54 C38 56 45 56 50 52Z" fill="#D8785A" opacity="0.92"/>
  <path d="M50 52 C45 48 40 43 32 40 C38 47 43 50 50 52Z" fill="#C8683A" opacity="0.92"/>
  <!-- Third ring — warm amber/terracotta -->
  <path d="M50 52 C49 48 49 42 50 38 C51 42 51 48 50 52Z" fill="#E8907A"/>
  <path d="M50 52 C53 49 57 46 61 44 C58 48 54 50 50 52Z" fill="#D8785A"/>
  <path d="M50 52 C54 52 59 53 63 55 C59 56 54 55 50 52Z" fill="#E8907A"/>
  <path d="M50 52 C53 56 57 59 61 62 C58 57 54 54 50 52Z" fill="#D8785A"/>
  <path d="M50 52 C49 56 49 62 50 66 C51 62 51 56 50 52Z" fill="#E8907A" opacity="0.85"/>
  <path d="M50 52 C47 56 43 59 39 62 C42 57 46 54 50 52Z" fill="#D8785A"/>
  <path d="M50 52 C46 52 41 53 37 55 C41 56 46 55 50 52Z" fill="#E8907A"/>
  <path d="M50 52 C47 49 43 46 39 44 C42 48 46 50 50 52Z" fill="#D8785A"/>
  <!-- Innermost short petals -->
  <path d="M50 52 C49 49 49 46 50 44 C51 46 51 49 50 52Z" fill="#F0A888"/>
  <path d="M50 52 C52 50 54 48 56 46 C54 49 52 51 50 52Z" fill="#E8907A"/>
  <path d="M50 52 C52 54 54 56 56 58 C54 55 51 53 50 52Z" fill="#F0A888"/>
  <path d="M50 52 C48 54 46 56 44 58 C46 55 49 53 50 52Z" fill="#E8907A"/>
  <path d="M50 52 C48 50 46 48 44 46 C46 49 48 51 50 52Z" fill="#F0A888"/>
  <!-- Dark center disc -->
  <circle cx="50" cy="52" r="5.5" fill="#8B3820"/>
  <circle cx="50" cy="52" r="4" fill="#A84A2C"/>
  <circle cx="49" cy="51" r="1.3" fill="#D07848" opacity="0.8"/>
  <circle cx="51" cy="51" r="1.3" fill="#D07848" opacity="0.8"/>
  <circle cx="50" cy="53.5" r="1.3" fill="#D07848" opacity="0.8"/>
  <circle cx="50" cy="52" r="1.2" fill="#E8B060"/>
</svg>
