<svg xmlns="http://www.w3.org/2000/svg" viewBox="0 0 100 100">
  <!-- Lavender Sprig — Tier 1 Herb -->
  <ellipse cx="50" cy="93" rx="14" ry="4" fill="#7A5C2A" opacity="0.25"/>
  <!-- Main stem -->
  <path d="M50 90 C49 82 49 74 50 64" stroke="#5A7A30" stroke-width="2.8" stroke-linecap="round" fill="none"/>
  <!-- Basal leaves -->
  <path d="M50 88 C43 86 36 88 33 92 C38 88 44 87 50 88Z" fill="#5A7A30"/>
  <path d="M50 88 C57 86 64 88 67 92 C62 88 56 87 50 88Z" fill="#6B8B3A"/>
  <path d="M50 82 C44 80 38 81 36 85 C40 81 45 80 50 82Z" fill="#5A7A30"/>
  <path d="M50 82 C56 80 62 81 64 85 C60 81 55 80 50 82Z" fill="#6B8B3A"/>
  <path d="M50 75 C45 73 40 73 38 76 C42 73 46 73 50 75Z" fill="#5A7A30"/>
  <path d="M50 75 C55 73 60 73 62 76 C58 73 54 73 50 75Z" fill="#6B8B3A"/>
  <!-- Three flower spikes -->
  <path d="M50 64 C50 58 50 45 50 18" stroke="#6B8B3A" stroke-width="1.8" stroke-linecap="round" fill="none"/>
  <path d="M50 64 C47 58 44 48 42 20" stroke="#6B8B3A" stroke-width="1.6" stroke-linecap="round" fill="none"/>
  <path d="M50 64 C53 58 56 48 58 20" stroke="#6B8B3A" stroke-width="1.6" stroke-linecap="round" fill="none"/>
  <!-- Center spike florets (bottom to top, darkening then lightening) -->
  <ellipse cx="50" cy="56" rx="4.5" ry="3" fill="#7A5498"/>
  <ellipse cx="50" cy="51" rx="4" ry="2.8" fill="#7A5498"/>
  <ellipse cx="50" cy="46" rx="3.8" ry="2.6" fill="#8B64AC"/>
  <ellipse cx="50" cy="41" rx="3.5" ry="2.5" fill="#9B74BC"/>
  <ellipse cx="50" cy="37" rx="3" ry="2.2" fill="#A882C0"/>
  <ellipse cx="50" cy="33" rx="2.8" ry="2" fill="#B892CC"/>
  <ellipse cx="50" cy="29" rx="2.5" ry="1.8" fill="#C4A0D4"/>
  <ellipse cx="50" cy="25" rx="2" ry="1.6" fill="#CEB0DC"/>
  <ellipse cx="50" cy="21" rx="1.6" ry="1.3" fill="#D8BEE4"/>
  <!-- Left spike florets -->
  <ellipse cx="42" cy="52" rx="4" ry="2.6" fill="#7A5498"/>
  <ellipse cx="42" cy="47" rx="3.8" ry="2.4" fill="#8B64AC"/>
  <ellipse cx="42" cy="42" rx="3.5" ry="2.2" fill="#9B74BC"/>
  <ellipse cx="42" cy="38" rx="3" ry="2" fill="#A882C0"/>
  <ellipse cx="42" cy="34" rx="2.6" ry="1.8" fill="#B892CC"/>
  <ellipse cx="42" cy="30" rx="2.2" ry="1.5" fill="#C4A0D4"/>
  <ellipse cx="42" cy="26" rx="1.8" ry="1.3" fill="#CEB0DC"/>
  <ellipse cx="42" cy="23" rx="1.4" ry="1.1" fill="#D8BEE4"/>
  <!-- Right spike florets -->
  <ellipse cx="58" cy="52" rx="4" ry="2.6" fill="#7A5498"/>
  <ellipse cx="58" cy="47" rx="3.8" ry="2.4" fill="#8B64AC"/>
  <ellipse cx="58" cy="42" rx="3.5" ry="2.2" fill="#9B74BC"/>
  <ellipse cx="58" cy="38" rx="3" ry="2" fill="#A882C0"/>
  <ellipse cx="58" cy="34" rx="2.6" ry="1.8" fill="#B892CC"/>
  <ellipse cx="58" cy="30" rx="2.2" ry="1.5" fill="#C4A0D4"/>
  <ellipse cx="58" cy="26" rx="1.8" ry="1.3" fill="#CEB0DC"/>
  <ellipse cx="58" cy="23" rx="1.4" ry="1.1" fill="#D8BEE4"/>
</svg>
