<svg xmlns="http://www.w3.org/2000/svg" viewBox="0 0 100 100">
  <!-- Mint Sprig — Tier 1 Herb -->
  <ellipse cx="50" cy="93" rx="12" ry="3.5" fill="#7A5C2A" opacity="0.25"/>
  <!-- Main stem -->
  <path d="M50 90 C49 82 49 70 50 35" stroke="#5A8030" stroke-width="2.8" stroke-linecap="round" fill="none"/>
  <!-- Side branches -->
  <path d="M50 80 C43 77 36 78 32 83" stroke="#5A8030" stroke-width="2" stroke-linecap="round" fill="none"/>
  <path d="M50 80 C57 77 64 78 68 83" stroke="#5A8030" stroke-width="2" stroke-linecap="round" fill="none"/>
  <path d="M50 68 C42 65 34 65 30 70" stroke="#5A8030" stroke-width="2" stroke-linecap="round" fill="none"/>
  <path d="M50 68 C58 65 66 65 70 70" stroke="#5A8030" stroke-width="2" stroke-linecap="round" fill="none"/>
  <path d="M50 56 C43 53 36 52 33 57" stroke="#5A8030" stroke-width="1.8" stroke-linecap="round" fill="none"/>
  <path d="M50 56 C57 53 64 52 67 57" stroke="#5A8030" stroke-width="1.8" stroke-linecap="round" fill="none"/>
  <path d="M50 46 C44 43 38 42 36 47" stroke="#5A8030" stroke-width="1.6" stroke-linecap="round" fill="none"/>
  <path d="M50 46 C56 43 62 42 64 47" stroke="#5A8030" stroke-width="1.6" stroke-linecap="round" fill="none"/>
  <!-- Oval leaf pairs — rounded, slightly wrinkled feel -->
  <!-- Bottom pair -->
  <path d="M50 80 C43 76 35 76 32 82 C36 76 43 77 50 80Z" fill="#5AB840"/>
  <path d="M32 82 C33 78 37 77 40 80 C37 81 34 82 32 82Z" fill="#48A030" opacity="0.6"/>
  <path d="M50 80 C57 76 65 76 68 82 C64 76 57 77 50 80Z" fill="#4AAA38"/>
  <path d="M68 82 C67 78 63 77 60 80 C63 81 66 82 68 82Z" fill="#48A030" opacity="0.6"/>
  <!-- Mid pair -->
  <path d="M50 68 C42 64 34 63 30 69 C35 63 42 65 50 68Z" fill="#5AB840"/>
  <path d="M30 69 C31 65 35 64 38 67 C35 68 32 69 30 69Z" fill="#48A030" opacity="0.6"/>
  <path d="M50 68 C58 64 66 63 70 69 C65 63 58 65 50 68Z" fill="#4AAA38"/>
  <path d="M70 69 C69 65 65 64 62 67 C65 68 68 69 70 69Z" fill="#48A030" opacity="0.6"/>
  <!-- Upper-mid pair -->
  <path d="M50 56 C43 52 36 50 33 55 C37 51 43 53 50 56Z" fill="#5AB840"/>
  <path d="M50 56 C57 52 64 50 67 55 C63 51 57 53 50 56Z" fill="#4AAA38"/>
  <!-- Upper pair -->
  <path d="M50 46 C44 42 38 40 36 45 C39 41 44 43 50 46Z" fill="#5AB840"/>
  <path d="M50 46 C56 42 62 40 64 45 C61 41 56 43 50 46Z" fill="#4AAA38"/>
  <!-- Leaf veins -->
  <path d="M32 82 C38 77 46 79 50 80" stroke="#3A9020" stroke-width="0.7" fill="none" opacity="0.4"/>
  <path d="M68 82 C62 77 54 79 50 80" stroke="#3A9020" stroke-width="0.7" fill="none" opacity="0.4"/>
  <path d="M30 69 C36 64 44 66 50 68" stroke="#3A9020" stroke-width="0.7" fill="none" opacity="0.4"/>
  <path d="M70 69 C64 64 56 66 50 68" stroke="#3A9020" stroke-width="0.7" fill="none" opacity="0.4"/>
  <!-- Flower spike at top — whorls of tiny lavender florets -->
  <path d="M50 35 L50 16" stroke="#6B8A3A" stroke-width="1.5" stroke-linecap="round" fill="none"/>
  <!-- Flower whorls stacked around stem -->
  <ellipse cx="50" cy="33" rx="5.5" ry="2.8" fill="#9878B8" opacity="0.9"/>
  <circle cx="44.5" cy="31.5" r="1.6" fill="#7A58A0"/>
  <circle cx="50" cy="30.5" r="1.6" fill="#7A58A0"/>
  <circle cx="55.5" cy="31.5" r="1.6" fill="#7A58A0"/>
  <circle cx="47" cy="34" r="1.2" fill="#B090CC"/>
  <circle cx="53" cy="34" r="1.2" fill="#B090CC"/>
  <ellipse cx="50" cy="27" rx="4.5" ry="2.4" fill="#9878B8" opacity="0.9"/>
  <circle cx="45.5" cy="25.5" r="1.3" fill="#7A58A0"/>
  <circle cx="50" cy="24.5" r="1.3" fill="#7A58A0"/>
  <circle cx="54.5" cy="25.5" r="1.3" fill="#7A58A0"/>
  <ellipse cx="50" cy="22" rx="3.5" ry="2" fill="#B090CC" opacity="0.9"/>
  <circle cx="46.5" cy="20.5" r="1.1" fill="#9878B8"/>
  <circle cx="50" cy="19.5" r="1.1" fill="#9878B8"/>
  <circle cx="53.5" cy="20.5" r="1.1" fill="#9878B8"/>
  <ellipse cx="50" cy="17.5" rx="2.5" ry="1.5" fill="#C8B0DC" opacity="0.9"/>
  <!-- Small bracts at flower base -->
  <path d="M44 37 C42 35 41 31 43 29 C43 32 43 35 44 37Z" fill="#4AAA38"/>
  <path d="M56 37 C58 35 59 31 57 29 C57 32 57 35 56 37Z" fill="#4AAA38"/>
</svg>
