<svg xmlns="http://www.w3.org/2000/svg" viewBox="0 0 100 100" fill="none">
  <!-- Lavender Sprig — Tier 1 Herb -->

  <!-- Main stem -->
  <path d="M50 90 C50 90 49 75 50 60" stroke="#4A3520" stroke-width="2.5" stroke-linecap="round"/>

  <!-- Side leaf stems -->
  <path d="M50 78 C44 76 38 78 34 82" stroke="#5C8A4A" stroke-width="1.8" stroke-linecap="round"/>
  <path d="M50 78 C56 76 62 78 66 82" stroke="#5C8A4A" stroke-width="1.8" stroke-linecap="round"/>
  <path d="M50 70 C44 68 38 67 35 70" stroke="#5C8A4A" stroke-width="1.8" stroke-linecap="round"/>
  <path d="M50 70 C56 68 62 67 65 70" stroke="#5C8A4A" stroke-width="1.8" stroke-linecap="round"/>
  <path d="M50 62 C45 60 40 58 38 60" stroke="#5C8A4A" stroke-width="1.5" stroke-linecap="round"/>
  <path d="M50 62 C55 60 60 58 62 60" stroke="#5C8A4A" stroke-width="1.5" stroke-linecap="round"/>

  <!-- Flower spike stems (3) -->
  <path d="M50 60 L50 20" stroke="#6B8B3A" stroke-width="1.8" stroke-linecap="round"/>
  <path d="M50 60 C47 55 44 45 44 18" stroke="#6B8B3A" stroke-width="1.5" stroke-linecap="round"/>
  <path d="M50 60 C53 55 56 45 56 18" stroke="#6B8B3A" stroke-width="1.5" stroke-linecap="round"/>

  <!-- Center spike florets -->
  <ellipse cx="50" cy="38" rx="4" ry="3" fill="#8B6CAC"/>
  <ellipse cx="50" cy="32" rx="3.5" ry="2.5" fill="#9B7CBC"/>
  <ellipse cx="50" cy="27" rx="3" ry="2.5" fill="#A88CC0"/>
  <ellipse cx="50" cy="22" rx="2.5" ry="2" fill="#BC9ED0"/>
  <ellipse cx="50" cy="18" rx="2" ry="1.8" fill="#C8ACD8"/>
  <!-- Small petal details on center -->
  <circle cx="47" cy="38" r="1.5" fill="#9B7CBC" opacity="0.7"/>
  <circle cx="53" cy="38" r="1.5" fill="#9B7CBC" opacity="0.7"/>
  <circle cx="47" cy="32" r="1.2" fill="#A88CC0" opacity="0.7"/>
  <circle cx="53" cy="32" r="1.2" fill="#A88CC0" opacity="0.7"/>

  <!-- Left spike florets -->
  <ellipse cx="44" cy="36" rx="3.5" ry="2.5" fill="#8B6CAC"/>
  <ellipse cx="44" cy="30" rx="3" ry="2.2" fill="#9B7CBC"/>
  <ellipse cx="44" cy="25" rx="2.5" ry="2" fill="#A88CC0"/>
  <ellipse cx="44" cy="21" rx="2" ry="1.8" fill="#BC9ED0"/>

  <!-- Right spike florets -->
  <ellipse cx="56" cy="36" rx="3.5" ry="2.5" fill="#8B6CAC"/>
  <ellipse cx="56" cy="30" rx="3" ry="2.2" fill="#9B7CBC"/>
  <ellipse cx="56" cy="25" rx="2.5" ry="2" fill="#A88CC0"/>
  <ellipse cx="56" cy="21" rx="2" ry="1.8" fill="#BC9ED0"/>

  <!-- Leaf pairs (narrow, elongated) -->
  <path d="M50 78 C44 76 36 77 34 82 C38 79 46 78 50 78Z" fill="#5C8A4A"/>
  <path d="M50 78 C56 76 64 77 66 82 C62 79 54 78 50 78Z" fill="#6B9B4A"/>
  <path d="M50 70 C44 68 37 66 35 70 C39 68 46 69 50 70Z" fill="#5C8A4A"/>
  <path d="M50 70 C56 68 63 66 65 70 C61 68 54 69 50 70Z" fill="#6B9B4A"/>
  <path d="M50 62 C45 60 39 57 38 60 C41 59 46 61 50 62Z" fill="#5C8A4A"/>
  <path d="M50 62 C55 60 61 57 62 60 C59 59 54 61 50 62Z" fill="#6B9B4A"/>

  <!-- Ground soil suggestion -->
  <ellipse cx="50" cy="91" rx="10" ry="3" fill="#8B6914" opacity="0.3"/>
</svg>
