<svg xmlns="http://www.w3.org/2000/svg" viewBox="0 0 100 100">
  <!-- Rosehip / Bramble — Tier 3 Tree/Vine -->
  <ellipse cx="40" cy="93" rx="22" ry="4" fill="#8B6914" opacity="0.28"/>
  <!-- Main arching canes -->
  <path d="M18 90 C20 80 26 66 36 52 C46 39 58 29 72 21" stroke="#6B4020" stroke-width="3.2" stroke-linecap="round" fill="none"/>
  <path d="M28 91 C29 80 34 67 42 55 C50 43 62 33 76 25" stroke="#8B5C30" stroke-width="2.6" stroke-linecap="round" fill="none"/>
  <path d="M14 80 C17 70 24 60 34 50 C44 40 57 32 70 25" stroke="#8B5C30" stroke-width="2.2" stroke-linecap="round" fill="none"/>
  <!-- Shorter sprays -->
  <path d="M50 89 C52 78 58 66 66 56" stroke="#8B5C30" stroke-width="2" stroke-linecap="round" fill="none"/>
  <path d="M60 91 C62 80 68 68 74 57" stroke="#6B4020" stroke-width="1.9" stroke-linecap="round" fill="none"/>
  <path d="M38 89 C38 78 40 67 44 57" stroke="#8B5C30" stroke-width="1.9" stroke-linecap="round" fill="none"/>
  <!-- Thorns (distinctive) -->
  <path d="M24 83 L20 79" stroke="#6B4020" stroke-width="1.8" stroke-linecap="round" fill="none"/>
  <path d="M32 74 L35 70" stroke="#6B4020" stroke-width="1.8" stroke-linecap="round" fill="none"/>
  <path d="M40 64 L36 60" stroke="#6B4020" stroke-width="1.6" stroke-linecap="round" fill="none"/>
  <path d="M50 53 L54 50" stroke="#6B4020" stroke-width="1.6" stroke-linecap="round" fill="none"/>
  <path d="M60 43 L56 40" stroke="#6B4020" stroke-width="1.5" stroke-linecap="round" fill="none"/>
  <path d="M68 35 L72 32" stroke="#6B4020" stroke-width="1.3" stroke-linecap="round" fill="none"/>
  <path d="M36 63 L32 60" stroke="#8B5C30" stroke-width="1.3" stroke-linecap="round" fill="none"/>
  <path d="M44 55 L48 52" stroke="#8B5C30" stroke-width="1.3" stroke-linecap="round" fill="none"/>
  <path d="M55 68 L51 65" stroke="#8B5C30" stroke-width="1.3" stroke-linecap="round" fill="none"/>
  <path d="M64 57 L68 54" stroke="#8B5C30" stroke-width="1.2" stroke-linecap="round" fill="none"/>
  <!-- Compound leaves (5 leaflets each) -->
  <!-- Cluster 1 (lower left) -->
  <path d="M27 76 C23 73 19 74 17 78 C20 74 24 74 27 76Z" fill="#4A7A30"/>
  <path d="M27 76 C31 73 35 74 37 78 C34 74 30 74 27 76Z" fill="#5C8A40"/>
  <path d="M27 76 C27 72 27 67 29 64 C28 67 27 72 27 76Z" fill="#4A7A30"/>
  <path d="M27 76 C23 72 21 67 23 63 C23 67 24 72 27 76Z" fill="#5C8A40"/>
  <path d="M27 76 C31 72 33 67 31 63 C31 67 30 72 27 76Z" fill="#4A7A30"/>
  <!-- Cluster 2 (mid) -->
  <path d="M43 60 C39 57 35 58 33 62 C36 58 40 58 43 60Z" fill="#4A7A30"/>
  <path d="M43 60 C47 57 51 58 53 62 C50 58 46 58 43 60Z" fill="#5C8A40"/>
  <path d="M43 60 C43 56 43 51 45 48 C44 51 43 56 43 60Z" fill="#4A7A30"/>
  <path d="M43 60 C39 56 37 51 39 47 C39 51 40 56 43 60Z" fill="#5C8A40"/>
  <path d="M43 60 C47 56 49 51 47 47 C47 51 46 56 43 60Z" fill="#4A7A30"/>
  <!-- Cluster 3 (upper) -->
  <path d="M59 42 C55 39 51 40 49 44 C52 40 56 40 59 42Z" fill="#4A7A30"/>
  <path d="M59 42 C63 39 67 40 69 44 C66 40 62 40 59 42Z" fill="#5C8A40"/>
  <path d="M59 42 C59 38 59 33 61 30 C60 33 59 38 59 42Z" fill="#4A7A30"/>
  <path d="M59 42 C55 38 53 33 55 29 C55 33 56 38 59 42Z" fill="#5C8A40"/>
  <path d="M59 42 C63 38 65 33 63 29 C63 33 62 38 59 42Z" fill="#4A7A30"/>
  <!-- Extra leaves -->
  <path d="M49 72 C45 69 41 70 39 74 C42 70 46 70 49 72Z" fill="#4A7A30"/>
  <path d="M49 72 C53 69 57 70 59 74 C56 70 52 70 49 72Z" fill="#5C8A40"/>
  <path d="M65 56 C61 53 57 54 55 58 C58 54 62 54 65 56Z" fill="#4A7A30"/>
  <path d="M65 56 C69 53 73 54 75 58 C72 54 68 54 65 56Z" fill="#5C8A40"/>
  <path d="M73 39 C69 36 65 37 63 41 C66 37 70 37 73 39Z" fill="#4A7A30"/>
  <!-- Late roses (small 5-petal, secondary feature) -->
  <path d="M35 51 C33 48 33 44 35 42 C37 40 40 42 40 45 C40 48 38 51 35 51Z" fill="#CC7888"/>
  <path d="M35 51 C32 52 29 50 29 47 C29 44 32 43 34 45Z" fill="#BC6878"/>
  <path d="M35 51 C38 52 40 55 39 58 C37 56 36 53 35 51Z" fill="#CC7888"/>
  <path d="M35 51 C32 54 30 57 31 60 C32 57 34 54 35 51Z" fill="#DC9898"/>
  <circle cx="35" cy="51" r="3.5" fill="#C8A020"/>
  <circle cx="35" cy="51" r="2.2" fill="#E0BC30"/>
  <path d="M61 33 C59 30 59 26 61 24 C63 22 66 24 66 27 C66 30 64 33 61 33Z" fill="#BC6878"/>
  <path d="M61 33 C58 34 55 32 55 29 C55 26 58 25 60 27Z" fill="#CC7888"/>
  <path d="M61 33 C64 32 65 29 63 26Z" fill="#DC9898"/>
  <circle cx="61" cy="33" r="3" fill="#C8A020"/>
  <circle cx="61" cy="33" r="1.8" fill="#E0BC30"/>
  <!-- ROSEHIPS — the main visual feature, bright red -->
  <!-- Large hips cluster -->
  <circle cx="72" cy="24" r="6" fill="#C03030"/>
  <circle cx="72" cy="24" r="4.5" fill="#D84040"/>
  <path d="M72 21 L73 19 L74.5 21 L72 20Z" fill="#4A3520"/>
  <path d="M72 21 L70 19 L71 21 L72 20Z" fill="#4A3520"/>
  <path d="M73.5 22.5 L76 20 L74.5 22.5Z" fill="#4A3520"/>
  <circle cx="70" cy="22" r="1.8" fill="#E85050" opacity="0.7"/>
  <circle cx="72" cy="24" r="6" fill="none" stroke="#A02020" stroke-width="0.5" opacity="0.4"/>
  <circle cx="24" cy="64" r="5.5" fill="#C03030"/>
  <circle cx="24" cy="64" r="4" fill="#D84040"/>
  <path d="M24 61 L25 59 L26.5 61 L24 60Z" fill="#4A3520"/>
  <path d="M24 61 L22 59 L23 61 L24 60Z" fill="#4A3520"/>
  <circle cx="22" cy="62" r="1.5" fill="#E85050" opacity="0.7"/>
  <!-- Medium hips -->
  <circle cx="48" cy="46" r="5" fill="#C83838"/>
  <circle cx="48" cy="46" r="3.5" fill="#DC4848"/>
  <path d="M48 43 L49 41 L50.5 43 L48 42Z" fill="#4A3520"/>
  <path d="M48 43 L46 41 L47 43 L48 42Z" fill="#4A3520"/>
  <circle cx="46" cy="44" r="1.3" fill="#E85050" opacity="0.6"/>
  <circle cx="66" cy="59" r="4.5" fill="#C03030"/>
  <circle cx="66" cy="59" r="3" fill="#D84040"/>
  <path d="M66 56 L67 54 L68.5 56 L66 55Z" fill="#4A3520"/>
  <path d="M66 56 L64 54 L65 56 L66 55Z" fill="#4A3520"/>
  <!-- Small hip clusters -->
  <circle cx="80" cy="33" r="4" fill="#C83838"/>
  <circle cx="84" cy="35" r="3.5" fill="#B82828"/>
  <circle cx="82" cy="39" r="3.5" fill="#C83838"/>
  <circle cx="15" cy="72" r="3.5" fill="#B82828"/>
  <circle cx="19" cy="76" r="4" fill="#C83838"/>
</svg>
