<svg xmlns="http://www.w3.org/2000/svg" viewBox="0 0 100 100" fill="none">
  <!-- Apple/Pear Blossom Tree — Tier 3 Tree -->

  <!-- Trunk -->
  <path d="M50 90 C50 85 49 78 49 70" stroke="#6B4020" stroke-width="5" stroke-linecap="round"/>
  <path d="M49 70 C48 65 47 60 48 55" stroke="#6B4020" stroke-width="4" stroke-linecap="round"/>
  <!-- Trunk texture -->
  <path d="M49 85 C47 83 47 80 49 78" stroke="#8B5C30" stroke-width="1.2" opacity="0.5"/>
  <path d="M50 80 C52 78 52 75 50 73" stroke="#8B5C30" stroke-width="1.2" opacity="0.5"/>

  <!-- Main branches -->
  <path d="M49 65 C44 60 36 54 28 50" stroke="#6B4020" stroke-width="3" stroke-linecap="round"/>
  <path d="M49 65 C54 60 62 54 70 48" stroke="#6B4020" stroke-width="3" stroke-linecap="round"/>
  <path d="M49 58 C48 52 46 44 44 36" stroke="#8B5C30" stroke-width="2.5" stroke-linecap="round"/>
  <path d="M49 58 C52 52 54 44 56 36" stroke="#8B5C30" stroke-width="2.5" stroke-linecap="round"/>

  <!-- Sub-branches -->
  <path d="M35 52 C30 48 24 46 20 48" stroke="#8B5C30" stroke-width="2" stroke-linecap="round"/>
  <path d="M35 52 C33 46 32 40 34 34" stroke="#8B5C30" stroke-width="1.8" stroke-linecap="round"/>
  <path d="M63 51 C68 47 74 45 78 47" stroke="#8B5C30" stroke-width="2" stroke-linecap="round"/>
  <path d="M63 51 C65 45 66 39 64 33" stroke="#8B5C30" stroke-width="1.8" stroke-linecap="round"/>
  <path d="M44 40 C40 35 36 28 38 22" stroke="#8B5C30" stroke-width="1.5" stroke-linecap="round"/>
  <path d="M56 40 C60 35 64 28 62 22" stroke="#8B5C30" stroke-width="1.5" stroke-linecap="round"/>
  <path d="M49 55 C48 48 48 40 50 32" stroke="#8B5C30" stroke-width="1.5" stroke-linecap="round"/>

  <!-- Fine twigs -->
  <path d="M20 48 C18 44 19 40 22 38" stroke="#A07050" stroke-width="1.2" stroke-linecap="round"/>
  <path d="M20 48 C16 48 14 46 15 43" stroke="#A07050" stroke-width="1.2" stroke-linecap="round"/>
  <path d="M34 34 C32 28 34 22 38 20" stroke="#A07050" stroke-width="1.2" stroke-linecap="round"/>
  <path d="M34 34 C30 30 30 24 34 22" stroke="#A07050" stroke-width="1.2" stroke-linecap="round"/>
  <path d="M78 47 C80 43 81 39 78 36" stroke="#A07050" stroke-width="1.2" stroke-linecap="round"/>
  <path d="M78 47 C82 47 84 45 83 42" stroke="#A07050" stroke-width="1.2" stroke-linecap="round"/>
  <path d="M64 33 C62 27 64 21 68 19" stroke="#A07050" stroke-width="1.2" stroke-linecap="round"/>
  <path d="M64 33 C68 29 68 23 64 21" stroke="#A07050" stroke-width="1.2" stroke-linecap="round"/>
  <path d="M38 22 C36 16 38 10 42 9" stroke="#A07050" stroke-width="1.2" stroke-linecap="round"/>
  <path d="M62 22 C64 16 62 10 58 9" stroke="#A07050" stroke-width="1.2" stroke-linecap="round"/>
  <path d="M50 32 C48 26 48 18 50 14" stroke="#A07050" stroke-width="1.2" stroke-linecap="round"/>
  <path d="M50 32 C52 26 52 18 50 14" stroke="#A07050" stroke-width="1.2" stroke-linecap="round"/>

  <!-- Spring leaves (small, just opening) -->
  <ellipse cx="28" cy="49" rx="4" ry="2.5" fill="#7BAB5A" transform="rotate(-20,28,49)"/>
  <ellipse cx="22" cy="46" rx="3.5" ry="2" fill="#6B9B4A" transform="rotate(-30,22,46)"/>
  <ellipse cx="70" cy="47" rx="4" ry="2.5" fill="#7BAB5A" transform="rotate(20,70,47)"/>
  <ellipse cx="76" cy="45" rx="3.5" ry="2" fill="#6B9B4A" transform="rotate(25,76,45)"/>
  <ellipse cx="44" cy="37" rx="3.5" ry="2" fill="#7BAB5A" transform="rotate(-15,44,37)"/>
  <ellipse cx="56" cy="37" rx="3.5" ry="2" fill="#6B9B4A" transform="rotate(15,56,37)"/>
  <ellipse cx="50" cy="30" rx="3" ry="2" fill="#7BAB5A"/>

  <!-- Apple blossoms — 5-petal flowers at twig ends -->
  <!-- Blossom macro: 5 rounded petals around a yellow center -->

  <!-- Blossom 1 — far left -->
  <circle cx="18" cy="43" r="7" fill="#F5D0E0" opacity="0.3"/>
  <path d="M18 43 C16 40 14 37 16 35 C18 33 20 35 20 38Z" fill="#F5D0E0"/>
  <path d="M18 43 C21 41 24 39 25 37 C24 39 22 42 18 43Z" fill="#F0C8D8"/>
  <path d="M18 43 C21 45 23 48 22 50 C20 48 18 46 18 43Z" fill="#F5D0E0"/>
  <path d="M18 43 C15 45 13 48 14 50 C15 48 17 46 18 43Z" fill="#F0C8D8"/>
  <path d="M18 43 C15 41 12 39 13 37 C14 39 16 41 18 43Z" fill="#F5D0E0"/>
  <circle cx="18" cy="43" r="3" fill="#F0D060"/>
  <circle cx="17" cy="42" r="0.8" fill="#C8A030" opacity="0.7"/>
  <circle cx="19" cy="42" r="0.8" fill="#C8A030" opacity="0.7"/>
  <circle cx="18" cy="44" r="0.8" fill="#C8A030" opacity="0.7"/>

  <!-- Blossom 2 — left mid -->
  <path d="M36 28 C34 25 32 22 34 20 C36 18 38 20 38 23Z" fill="#F5D0E0"/>
  <path d="M36 28 C39 26 42 24 43 22 C42 24 40 27 36 28Z" fill="#F0C8D8"/>
  <path d="M36 28 C39 30 41 33 40 35 C38 33 36 31 36 28Z" fill="#F5D0E0"/>
  <path d="M36 28 C33 30 31 33 32 35 C33 33 35 31 36 28Z" fill="#F0C8D8"/>
  <path d="M36 28 C33 26 30 24 31 22 C32 24 34 26 36 28Z" fill="#F5D0E0"/>
  <circle cx="36" cy="28" r="2.8" fill="#F0D060"/>
  <circle cx="35" cy="27" r="0.7" fill="#C8A030" opacity="0.7"/>
  <circle cx="37" cy="27" r="0.7" fill="#C8A030" opacity="0.7"/>

  <!-- Blossom 3 — top center -->
  <path d="M50 16 C48 13 46 10 48 8 C50 6 52 8 52 11Z" fill="#F8E0EC"/>
  <path d="M50 16 C53 14 56 12 57 10 C56 12 54 15 50 16Z" fill="#F0D0E0"/>
  <path d="M50 16 C53 18 55 21 54 23 C52 21 50 19 50 16Z" fill="#F8E0EC"/>
  <path d="M50 16 C47 18 45 21 46 23 C47 21 49 19 50 16Z" fill="#F0D0E0"/>
  <path d="M50 16 C47 14 44 12 45 10 C46 12 48 14 50 16Z" fill="#F8E0EC"/>
  <circle cx="50" cy="16" r="2.5" fill="#F0D060"/>

  <!-- Blossom 4 — right mid -->
  <path d="M64 26 C62 23 60 20 62 18 C64 16 66 18 66 21Z" fill="#F5D0E0"/>
  <path d="M64 26 C67 24 70 22 71 20 C70 22 68 25 64 26Z" fill="#F0C8D8"/>
  <path d="M64 26 C67 28 69 31 68 33 C66 31 64 29 64 26Z" fill="#F5D0E0"/>
  <path d="M64 26 C61 28 59 31 60 33 C61 31 63 29 64 26Z" fill="#F0C8D8"/>
  <path d="M64 26 C61 24 58 22 59 20 C60 22 62 24 64 26Z" fill="#F5D0E0"/>
  <circle cx="64" cy="26" r="2.8" fill="#F0D060"/>
  <circle cx="63" cy="25" r="0.7" fill="#C8A030" opacity="0.7"/>

  <!-- Blossom 5 — far right -->
  <path d="M82 41 C80 38 78 35 80 33 C82 31 84 33 84 36Z" fill="#F5D0E0"/>
  <path d="M82 41 C85 39 88 37 89 35 C88 37 86 40 82 41Z" fill="#F0C8D8"/>
  <path d="M82 41 C85 43 87 46 86 48 C84 46 82 44 82 41Z" fill="#F5D0E0"/>
  <path d="M82 41 C79 43 77 46 78 48 C79 46 81 44 82 41Z" fill="#F0C8D8"/>
  <path d="M82 41 C79 39 76 37 77 35 C78 37 80 39 82 41Z" fill="#F5D0E0"/>
  <circle cx="82" cy="41" r="2.8" fill="#F0D060"/>

  <!-- Blossom 6 — upper left area -->
  <path d="M42 12 C40 9 38 6 40 4 C42 2 44 4 44 7Z" fill="#F8E0EC"/>
  <path d="M42 12 C45 10 48 8 49 6 C48 8 46 11 42 12Z" fill="#F0D0E0"/>
  <path d="M42 12 C45 14 47 17 46 19 C44 17 42 15 42 12Z" fill="#F8E0EC"/>
  <path d="M42 12 C39 14 37 17 38 19 C39 17 41 15 42 12Z" fill="#F0D0E0"/>
  <path d="M42 12 C39 10 36 8 37 6 C38 8 40 10 42 12Z" fill="#F8E0EC"/>
  <circle cx="42" cy="12" r="2.5" fill="#F0D060"/>

  <!-- Blossom 7 — upper right area -->
  <path d="M58 12 C56 9 54 6 56 4 C58 2 60 4 60 7Z" fill="#F8E0EC"/>
  <path d="M58 12 C61 10 64 8 65 6 C64 8 62 11 58 12Z" fill="#F0D0E0"/>
  <path d="M58 12 C61 14 63 17 62 19 C60 17 58 15 58 12Z" fill="#F8E0EC"/>
  <path d="M58 12 C55 14 53 17 54 19 C55 17 57 15 58 12Z" fill="#F0D0E0"/>
  <path d="M58 12 C55 10 52 8 53 6 C54 8 56 10 58 12Z" fill="#F8E0EC"/>
  <circle cx="58" cy="12" r="2.5" fill="#F0D060"/>

  <!-- Extra scattered blossoms (smaller) -->
  <circle cx="30" cy="34" r="4" fill="#F5D0E0" opacity="0.8"/>
  <circle cx="30" cy="34" r="2" fill="#F0D060"/>
  <circle cx="68" cy="22" r="4" fill="#F0C8D8" opacity="0.8"/>
  <circle cx="68" cy="22" r="2" fill="#F0D060"/>

  <!-- Fallen petals suggestion at ground -->
  <ellipse cx="34" cy="89" rx="3" ry="1.5" fill="#F5D0E0" opacity="0.5"/>
  <ellipse cx="66" cy="89" rx="2.5" ry="1.2" fill="#F0C8D8" opacity="0.5"/>
  <ellipse cx="50" cy="90" rx="3" ry="1.2" fill="#F5D0E0" opacity="0.4"/>

  <!-- Ground soil -->
  <ellipse cx="50" cy="92" rx="14" ry="3.5" fill="#8B6914" opacity="0.3"/>
</svg>
