<svg xmlns="http://www.w3.org/2000/svg" viewBox="0 0 100 100" fill="none">
  <!-- Elderflower Tree — Tier 3 Tree -->

  <!-- Trunk -->
  <path d="M50 90 C50 85 49 78 49 70" stroke="#5C3A18" stroke-width="5" stroke-linecap="round"/>
  <path d="M49 70 C48 64 47 58 48 52" stroke="#5C3A18" stroke-width="4" stroke-linecap="round"/>
  <!-- Bark texture -->
  <path d="M49 85 C47 83 47 80 49 78" stroke="#7B4E28" stroke-width="1.2" opacity="0.5"/>
  <path d="M50 78 C52 76 52 73 50 71" stroke="#7B4E28" stroke-width="1.2" opacity="0.5"/>
  <path d="M48 72 C46 70 46 67 48 65" stroke="#7B4E28" stroke-width="1.2" opacity="0.4"/>

  <!-- Main branches -->
  <path d="M49 65 C44 60 36 55 26 50" stroke="#5C3A18" stroke-width="3" stroke-linecap="round"/>
  <path d="M49 65 C54 60 62 55 72 49" stroke="#5C3A18" stroke-width="3" stroke-linecap="round"/>
  <path d="M49 58 C48 52 46 44 44 36" stroke="#7B4E28" stroke-width="2.5" stroke-linecap="round"/>
  <path d="M49 58 C52 52 54 44 56 36" stroke="#7B4E28" stroke-width="2.5" stroke-linecap="round"/>
  <path d="M49 62 C47 56 43 50 38 45" stroke="#7B4E28" stroke-width="2" stroke-linecap="round"/>
  <path d="M49 62 C53 56 57 50 62 45" stroke="#7B4E28" stroke-width="2" stroke-linecap="round"/>

  <!-- Sub-branches -->
  <path d="M30 52 C26 48 20 45 16 46" stroke="#7B4E28" stroke-width="1.8" stroke-linecap="round"/>
  <path d="M30 52 C28 46 28 40 30 34" stroke="#7B4E28" stroke-width="1.8" stroke-linecap="round"/>
  <path d="M68 51 C72 47 78 44 82 45" stroke="#7B4E28" stroke-width="1.8" stroke-linecap="round"/>
  <path d="M68 51 C70 45 70 39 68 33" stroke="#7B4E28" stroke-width="1.8" stroke-linecap="round"/>
  <path d="M44 40 C40 35 36 28 38 22" stroke="#9B6840" stroke-width="1.5" stroke-linecap="round"/>
  <path d="M56 40 C60 35 64 28 62 22" stroke="#9B6840" stroke-width="1.5" stroke-linecap="round"/>
  <path d="M49 54 C48 48 48 40 50 32" stroke="#9B6840" stroke-width="1.5" stroke-linecap="round"/>
  <path d="M38 46 C34 42 30 36 32 30" stroke="#9B6840" stroke-width="1.3" stroke-linecap="round"/>
  <path d="M62 46 C66 42 70 36 68 30" stroke="#9B6840" stroke-width="1.3" stroke-linecap="round"/>

  <!-- Pinnate elderflower leaves (dark green, oval leaflets) -->
  <!-- Left side leaves -->
  <ellipse cx="24" cy="49" rx="5" ry="2.5" fill="#3A6B2A" transform="rotate(-15,24,49)"/>
  <ellipse cx="18" cy="46" rx="4.5" ry="2.2" fill="#4A7B3A" transform="rotate(-20,18,46)"/>
  <ellipse cx="28" cy="44" rx="5" ry="2.5" fill="#3A6B2A" transform="rotate(-10,28,44)"/>
  <ellipse cx="30" cy="38" rx="4.5" ry="2.2" fill="#4A7B3A" transform="rotate(-15,30,38)"/>
  <ellipse cx="26" cy="32" rx="4" ry="2" fill="#3A6B2A" transform="rotate(-10,26,32)"/>
  <ellipse cx="38" cy="30" rx="5" ry="2.5" fill="#4A7B3A" transform="rotate(-5,38,30)"/>
  <ellipse cx="34" cy="36" rx="4.5" ry="2.2" fill="#3A6B2A" transform="rotate(-10,34,36)"/>
  <ellipse cx="40" cy="24" rx="4" ry="2" fill="#4A7B3A" transform="rotate(-10,40,24)"/>

  <!-- Right side leaves -->
  <ellipse cx="70" cy="49" rx="5" ry="2.5" fill="#3A6B2A" transform="rotate(15,70,49)"/>
  <ellipse cx="76" cy="46" rx="4.5" ry="2.2" fill="#4A7B3A" transform="rotate(20,76,46)"/>
  <ellipse cx="66" cy="43" rx="5" ry="2.5" fill="#3A6B2A" transform="rotate(10,66,43)"/>
  <ellipse cx="68" cy="37" rx="4.5" ry="2.2" fill="#4A7B3A" transform="rotate(15,68,37)"/>
  <ellipse cx="64" cy="31" rx="4" ry="2" fill="#3A6B2A" transform="rotate(10,64,31)"/>
  <ellipse cx="60" cy="38" rx="5" ry="2.5" fill="#4A7B3A" transform="rotate(10,60,38)"/>
  <ellipse cx="62" cy="25" rx="4" ry="2" fill="#3A6B2A" transform="rotate(10,62,25)"/>

  <!-- Center top leaves -->
  <ellipse cx="50" cy="30" rx="5" ry="2.5" fill="#4A7B3A"/>
  <ellipse cx="44" cy="32" rx="4.5" ry="2.2" fill="#3A6B2A" transform="rotate(-10,44,32)"/>
  <ellipse cx="56" cy="32" rx="4.5" ry="2.2" fill="#3A6B2A" transform="rotate(10,56,32)"/>
  <ellipse cx="50" cy="23" rx="4.5" ry="2.2" fill="#4A7B3A"/>
  <ellipse cx="46" cy="17" rx="4" ry="2" fill="#3A6B2A" transform="rotate(-10,46,17)"/>
  <ellipse cx="54" cy="17" rx="4" ry="2" fill="#4A7B3A" transform="rotate(10,54,17)"/>

  <!-- Elderflower corymbs — flat-topped cream flower clusters -->
  <!-- Each corymb: a flat disc of tiny 5-petal cream flowers -->

  <!-- Corymb 1 — far left -->
  <ellipse cx="18" cy="40" rx="10" ry="5" fill="#E8D9B0" opacity="0.5"/>
  <circle cx="13" cy="40" r="2.5" fill="#F5EDD5"/>
  <circle cx="13" cy="40" r="1.5" fill="#F0E8C8"/>
  <circle cx="13" cy="40" r="0.5" fill="#E8C84A"/>
  <circle cx="18" cy="36" r="2.5" fill="#F5EDD5"/>
  <circle cx="18" cy="36" r="1.5" fill="#F0E8C8"/>
  <circle cx="18" cy="36" r="0.5" fill="#E8C84A"/>
  <circle cx="23" cy="38" r="2.5" fill="#F5EDD5"/>
  <circle cx="23" cy="38" r="1.5" fill="#F0E8C8"/>
  <circle cx="23" cy="38" r="0.5" fill="#E8C84A"/>
  <circle cx="20" cy="43" r="2.5" fill="#F5EDD5"/>
  <circle cx="20" cy="43" r="1.5" fill="#F0E8C8"/>
  <circle cx="20" cy="43" r="0.5" fill="#E8C84A"/>
  <circle cx="14" cy="44" r="2" fill="#F5EDD5"/>
  <circle cx="14" cy="44" r="1.2" fill="#F0E8C8"/>
  <circle cx="18" cy="41" r="2" fill="#F5EDD5"/>
  <circle cx="18" cy="41" r="1.2" fill="#F0E8C8"/>

  <!-- Corymb 2 — left mid -->
  <ellipse cx="32" cy="27" rx="10" ry="5" fill="#E8D9B0" opacity="0.5"/>
  <circle cx="27" cy="27" r="2.5" fill="#F5EDD5"/>
  <circle cx="27" cy="27" r="1.5" fill="#F0E8C8"/>
  <circle cx="27" cy="27" r="0.5" fill="#E8C84A"/>
  <circle cx="32" cy="23" r="2.5" fill="#F5EDD5"/>
  <circle cx="32" cy="23" r="1.5" fill="#F0E8C8"/>
  <circle cx="32" cy="23" r="0.5" fill="#E8C84A"/>
  <circle cx="37" cy="25" r="2.5" fill="#F5EDD5"/>
  <circle cx="37" cy="25" r="1.5" fill="#F0E8C8"/>
  <circle cx="37" cy="25" r="0.5" fill="#E8C84A"/>
  <circle cx="34" cy="30" r="2.5" fill="#F5EDD5"/>
  <circle cx="34" cy="30" r="1.5" fill="#F0E8C8"/>
  <circle cx="34" cy="30" r="0.5" fill="#E8C84A"/>
  <circle cx="29" cy="30" r="2" fill="#F5EDD5"/>
  <circle cx="29" cy="30" r="1.2" fill="#F0E8C8"/>

  <!-- Corymb 3 — center top (largest) -->
  <ellipse cx="50" cy="18" rx="12" ry="6" fill="#E8D9B0" opacity="0.5"/>
  <circle cx="44" cy="17" r="3" fill="#F5EDD5"/>
  <circle cx="44" cy="17" r="2" fill="#F0E8C8"/>
  <circle cx="44" cy="17" r="0.6" fill="#E8C84A"/>
  <circle cx="50" cy="13" r="3" fill="#F5EDD5"/>
  <circle cx="50" cy="13" r="2" fill="#F0E8C8"/>
  <circle cx="50" cy="13" r="0.6" fill="#E8C84A"/>
  <circle cx="56" cy="17" r="3" fill="#F5EDD5"/>
  <circle cx="56" cy="17" r="2" fill="#F0E8C8"/>
  <circle cx="56" cy="17" r="0.6" fill="#E8C84A"/>
  <circle cx="54" cy="22" r="2.5" fill="#F5EDD5"/>
  <circle cx="54" cy="22" r="1.5" fill="#F0E8C8"/>
  <circle cx="54" cy="22" r="0.5" fill="#E8C84A"/>
  <circle cx="46" cy="22" r="2.5" fill="#F5EDD5"/>
  <circle cx="46" cy="22" r="1.5" fill="#F0E8C8"/>
  <circle cx="46" cy="22" r="0.5" fill="#E8C84A"/>
  <circle cx="50" cy="19" r="2.5" fill="#F5EDD5"/>
  <circle cx="50" cy="19" r="1.5" fill="#F0E8C8"/>

  <!-- Corymb 4 — right mid -->
  <ellipse cx="68" cy="27" rx="10" ry="5" fill="#E8D9B0" opacity="0.5"/>
  <circle cx="63" cy="27" r="2.5" fill="#F5EDD5"/>
  <circle cx="63" cy="27" r="1.5" fill="#F0E8C8"/>
  <circle cx="63" cy="27" r="0.5" fill="#E8C84A"/>
  <circle cx="68" cy="23" r="2.5" fill="#F5EDD5"/>
  <circle cx="68" cy="23" r="1.5" fill="#F0E8C8"/>
  <circle cx="68" cy="23" r="0.5" fill="#E8C84A"/>
  <circle cx="73" cy="25" r="2.5" fill="#F5EDD5"/>
  <circle cx="73" cy="25" r="1.5" fill="#F0E8C8"/>
  <circle cx="73" cy="25" r="0.5" fill="#E8C84A"/>
  <circle cx="70" cy="30" r="2.5" fill="#F5EDD5"/>
  <circle cx="70" cy="30" r="1.5" fill="#F0E8C8"/>
  <circle cx="70" cy="30" r="0.5" fill="#E8C84A"/>
  <circle cx="65" cy="30" r="2" fill="#F5EDD5"/>
  <circle cx="65" cy="30" r="1.2" fill="#F0E8C8"/>

  <!-- Corymb 5 — far right -->
  <ellipse cx="80" cy="40" rx="10" ry="5" fill="#E8D9B0" opacity="0.5"/>
  <circle cx="75" cy="40" r="2.5" fill="#F5EDD5"/>
  <circle cx="75" cy="40" r="1.5" fill="#F0E8C8"/>
  <circle cx="75" cy="40" r="0.5" fill="#E8C84A"/>
  <circle cx="80" cy="36" r="2.5" fill="#F5EDD5"/>
  <circle cx="80" cy="36" r="1.5" fill="#F0E8C8"/>
  <circle cx="80" cy="36" r="0.5" fill="#E8C84A"/>
  <circle cx="85" cy="38" r="2.5" fill="#F5EDD5"/>
  <circle cx="85" cy="38" r="1.5" fill="#F0E8C8"/>
  <circle cx="85" cy="38" r="0.5" fill="#E8C84A"/>
  <circle cx="82" cy="43" r="2.5" fill="#F5EDD5"/>
  <circle cx="82" cy="43" r="1.5" fill="#F0E8C8"/>
  <circle cx="82" cy="43" r="0.5" fill="#E8C84A"/>
  <circle cx="77" cy="43" r="2" fill="#F5EDD5"/>
  <circle cx="77" cy="43" r="1.2" fill="#F0E8C8"/>

  <!-- Ground soil -->
  <ellipse cx="50" cy="92" rx="14" ry="3.5" fill="#8B6914" opacity="0.3"/>
</svg>
