<svg xmlns="http://www.w3.org/2000/svg" viewBox="0 0 100 100" fill="none">
  <!-- Climbing Roses on Trellis — Tier 3 Tree/Vine -->

  <!-- Trellis structure (lattice) -->
  <!-- Vertical posts -->
  <path d="M22 90 L22 10" stroke="#C4935A" stroke-width="3" stroke-linecap="round"/>
  <path d="M78 90 L78 10" stroke="#C4935A" stroke-width="3" stroke-linecap="round"/>
  <path d="M50 90 L50 10" stroke="#C4935A" stroke-width="2.5" stroke-linecap="round"/>
  <!-- Horizontal rails -->
  <path d="M18 18 L82 18" stroke="#C4935A" stroke-width="2.5" stroke-linecap="round"/>
  <path d="M18 38 L82 38" stroke="#C4935A" stroke-width="2" stroke-linecap="round"/>
  <path d="M18 58 L82 58" stroke="#C4935A" stroke-width="2" stroke-linecap="round"/>
  <path d="M18 78 L82 78" stroke="#C4935A" stroke-width="2" stroke-linecap="round"/>
  <!-- Diagonal cross-pieces -->
  <path d="M22 18 L50 38" stroke="#D4A870" stroke-width="1.5" opacity="0.7"/>
  <path d="M50 18 L22 38" stroke="#D4A870" stroke-width="1.5" opacity="0.7"/>
  <path d="M50 18 L78 38" stroke="#D4A870" stroke-width="1.5" opacity="0.7"/>
  <path d="M78 18 L50 38" stroke="#D4A870" stroke-width="1.5" opacity="0.7"/>
  <path d="M22 38 L50 58" stroke="#D4A870" stroke-width="1.5" opacity="0.7"/>
  <path d="M50 38 L22 58" stroke="#D4A870" stroke-width="1.5" opacity="0.7"/>
  <path d="M50 38 L78 58" stroke="#D4A870" stroke-width="1.5" opacity="0.7"/>
  <path d="M78 38 L50 58" stroke="#D4A870" stroke-width="1.5" opacity="0.7"/>
  <path d="M22 58 L50 78" stroke="#D4A870" stroke-width="1.5" opacity="0.7"/>
  <path d="M50 58 L22 78" stroke="#D4A870" stroke-width="1.5" opacity="0.7"/>
  <path d="M50 58 L78 78" stroke="#D4A870" stroke-width="1.5" opacity="0.7"/>
  <path d="M78 58 L50 78" stroke="#D4A870" stroke-width="1.5" opacity="0.7"/>

  <!-- Climbing rose canes (twining over trellis) -->
  <path d="M22 88 C24 80 28 70 30 60 C32 50 34 40 32 28 C30 20 26 15 22 12" stroke="#4A3520" stroke-width="2" stroke-linecap="round"/>
  <path d="M50 90 C52 80 54 70 52 58 C50 46 46 36 48 24 C50 16 54 12 50 10" stroke="#4A3520" stroke-width="2" stroke-linecap="round"/>
  <path d="M78 88 C76 78 72 68 70 56 C68 44 66 34 68 22 C70 14 76 10 78 10" stroke="#4A3520" stroke-width="2" stroke-linecap="round"/>
  <!-- Cross canes -->
  <path d="M22 70 C30 65 40 62 50 62" stroke="#5C3A18" stroke-width="1.5" stroke-linecap="round"/>
  <path d="M50 50 C58 48 68 46 78 46" stroke="#5C3A18" stroke-width="1.5" stroke-linecap="round"/>
  <path d="M22 48 C32 44 42 42 50 44" stroke="#5C3A18" stroke-width="1.5" stroke-linecap="round"/>
  <path d="M50 30 C60 28 70 26 78 28" stroke="#5C3A18" stroke-width="1.5" stroke-linecap="round"/>

  <!-- Thorns -->
  <path d="M25 74 L22 71" stroke="#6B4020" stroke-width="1.2" stroke-linecap="round"/>
  <path d="M28 62 L31 59" stroke="#6B4020" stroke-width="1.2" stroke-linecap="round"/>
  <path d="M52 54 L49 51" stroke="#6B4020" stroke-width="1.2" stroke-linecap="round"/>
  <path d="M70 46 L73 43" stroke="#6B4020" stroke-width="1.2" stroke-linecap="round"/>

  <!-- Rose leaves (dark green, serrated compound) -->
  <!-- Left cane leaves -->
  <path d="M24 74 C20 71 15 71 13 75 C16 71 21 71 24 74Z" fill="#3A6B2A"/>
  <path d="M27 65 C23 62 18 62 16 66 C19 62 24 62 27 65Z" fill="#4A7B3A"/>
  <path d="M30 54 C26 51 21 51 19 55 C22 51 27 51 30 54Z" fill="#3A6B2A"/>
  <path d="M32 43 C28 40 23 40 21 44 C24 40 29 40 32 43Z" fill="#4A7B3A"/>
  <path d="M30 32 C26 29 21 29 19 33 C22 29 27 29 30 32Z" fill="#3A6B2A"/>
  <path d="M26 22 C22 19 17 19 15 23 C18 19 23 19 26 22Z" fill="#4A7B3A"/>
  <!-- Right cane leaves -->
  <path d="M76 74 C80 71 85 71 87 75 C84 71 79 71 76 74Z" fill="#3A6B2A"/>
  <path d="M73 62 C77 59 82 59 84 63 C81 59 76 59 73 62Z" fill="#4A7B3A"/>
  <path d="M70 50 C74 47 79 47 81 51 C78 47 73 47 70 50Z" fill="#3A6B2A"/>
  <path d="M68 38 C72 35 77 35 79 39 C76 35 71 35 68 38Z" fill="#4A7B3A"/>
  <path d="M70 26 C74 23 79 23 81 27 C78 23 73 23 70 26Z" fill="#3A6B2A"/>
  <!-- Center cane leaves -->
  <path d="M48 60 C44 57 39 57 37 61 C40 57 45 57 48 60Z" fill="#3A6B2A"/>
  <path d="M50 50 C54 47 59 47 61 51 C58 47 53 47 50 50Z" fill="#4A7B3A"/>
  <path d="M48 40 C44 37 39 37 37 41 C40 37 45 37 48 40Z" fill="#3A6B2A"/>
  <path d="M50 28 C54 25 59 25 61 29 C58 25 53 25 50 28Z" fill="#4A7B3A"/>

  <!-- Rose blooms — scattered across trellis -->
  <!-- Rose 1 — lower left, full bloom -->
  <path d="M22 80 C20 77 18 73 20 70 C22 67 26 69 26 72 C26 76 24 80 22 80Z" fill="#C06070"/>
  <path d="M22 80 C19 81 15 79 14 76 C13 72 16 70 19 72Z" fill="#B85060"/>
  <path d="M22 80 C25 81 27 84 26 87 C24 85 23 82 22 80Z" fill="#D4847A"/>
  <path d="M22 80 C19 83 17 86 18 89 C19 86 21 83 22 80Z" fill="#C06070"/>
  <path d="M22 80 C25 77 26 74 24 71Z" fill="#D4847A"/>
  <circle cx="22" cy="80" r="4" fill="#D4847A"/>
  <circle cx="22" cy="80" r="2.5" fill="#E89898"/>
  <circle cx="22" cy="80" r="1.5" fill="#F0A8A0"/>
  <circle cx="22" cy="80" r="0.8" fill="#E8C84A"/>

  <!-- Rose 2 — center, medium -->
  <path d="M50 42 C48 39 46 35 48 32 C50 29 54 31 54 34 C54 38 52 42 50 42Z" fill="#D4847A"/>
  <path d="M50 42 C47 43 43 41 42 38 C41 34 44 32 47 34Z" fill="#C06070"/>
  <path d="M50 42 C53 43 55 46 54 49 C52 47 51 44 50 42Z" fill="#D4847A"/>
  <path d="M50 42 C47 45 45 48 46 51 C47 48 49 45 50 42Z" fill="#C06070"/>
  <path d="M50 42 C53 39 54 36 52 33Z" fill="#E8A090"/>
  <circle cx="50" cy="42" r="3.5" fill="#D4847A"/>
  <circle cx="50" cy="42" r="2" fill="#E89898"/>
  <circle cx="50" cy="42" r="1" fill="#E8C84A"/>

  <!-- Rose 3 — right upper, dusky pink -->
  <path d="M78 30 C76 27 74 23 76 20 C78 17 82 19 82 22 C82 26 80 30 78 30Z" fill="#C06070"/>
  <path d="M78 30 C75 31 71 29 70 26 C69 22 72 20 75 22Z" fill="#B85060"/>
  <path d="M78 30 C81 31 83 34 82 37 C80 35 79 32 78 30Z" fill="#D4847A"/>
  <path d="M78 30 C75 33 73 36 74 39 C75 36 77 33 78 30Z" fill="#C06070"/>
  <path d="M78 30 C81 27 82 24 80 21Z" fill="#E8A090"/>
  <circle cx="78" cy="30" r="4" fill="#D4847A"/>
  <circle cx="78" cy="30" r="2.5" fill="#E89898"/>
  <circle cx="78" cy="30" r="1.5" fill="#F0A8A0"/>
  <circle cx="78" cy="30" r="0.8" fill="#E8C84A"/>

  <!-- Rose 4 — left upper, bud-opening -->
  <path d="M24 28 C22 25 22 21 24 19 C26 17 29 19 29 22 C29 26 27 29 24 28Z" fill="#D4847A"/>
  <path d="M24 28 C21 29 18 27 18 24 C18 21 21 20 23 22Z" fill="#C06070"/>
  <path d="M24 28 C27 27 28 24 26 21Z" fill="#E8A090"/>
  <circle cx="24" cy="28" r="3.5" fill="#D4847A"/>
  <circle cx="24" cy="28" r="2" fill="#E89898"/>
  <circle cx="24" cy="28" r="1" fill="#E8C84A"/>

  <!-- Rose 5 — center right, small -->
  <path d="M68 60 C66 57 66 53 68 51 C70 49 73 51 73 54 C73 58 71 61 68 60Z" fill="#C06070"/>
  <path d="M68 60 C65 61 62 59 62 56 C62 53 65 52 67 54Z" fill="#D4847A"/>
  <path d="M68 60 C71 59 72 56 70 53Z" fill="#E8A090"/>
  <circle cx="68" cy="60" r="3" fill="#D4847A"/>
  <circle cx="68" cy="60" r="1.8" fill="#E89898"/>
  <circle cx="68" cy="60" r="0.8" fill="#E8C84A"/>

  <!-- Rose buds -->
  <!-- Bud 1 -->
  <path d="M36 22 L36 18" stroke="#5C3A18" stroke-width="1.2" stroke-linecap="round"/>
  <path d="M36 18 C35 16 35 13 36 12 C37 13 38 16 37 18 C37 16 36 14 36 12Z" fill="#3A6B2A"/>
  <ellipse cx="36" cy="15" rx="3" ry="4" fill="#C06070" opacity="0.9"/>
  <path d="M33 16 C33 14 35 13 36 15Z" fill="#3A6B2A"/>
  <path d="M39 16 C39 14 37 13 36 15Z" fill="#3A6B2A"/>

  <!-- Bud 2 -->
  <path d="M62 16 L62 12" stroke="#5C3A18" stroke-width="1.2" stroke-linecap="round"/>
  <ellipse cx="62" cy="11" rx="2.5" ry="3.5" fill="#D4847A" opacity="0.9"/>
  <path d="M59 12 C59 10 61 9 62 11Z" fill="#3A6B2A"/>
  <path d="M65 12 C65 10 63 9 62 11Z" fill="#3A6B2A"/>

  <!-- Ground soil -->
  <ellipse cx="50" cy="92" rx="16" ry="3.5" fill="#8B6914" opacity="0.3"/>
</svg>
