<svg xmlns="http://www.w3.org/2000/svg" viewBox="0 0 100 100">
  <!-- Climbing Roses on Trellis — Tier 3 Tree/Vine -->
  <ellipse cx="50" cy="93" rx="18" ry="4" fill="#8B6914" opacity="0.28"/>
  <!-- Trellis structure (warm cedar wood) -->
  <path d="M22 91 L22 9" stroke="#B8804A" stroke-width="3.5" stroke-linecap="round" fill="none"/>
  <path d="M78 91 L78 9" stroke="#B8804A" stroke-width="3.5" stroke-linecap="round" fill="none"/>
  <path d="M50 91 L50 9" stroke="#B8804A" stroke-width="3" stroke-linecap="round" fill="none"/>
  <path d="M17 17 L83 17" stroke="#B8804A" stroke-width="3" stroke-linecap="round" fill="none"/>
  <path d="M17 38 L83 38" stroke="#B8804A" stroke-width="2.5" stroke-linecap="round" fill="none"/>
  <path d="M17 58 L83 58" stroke="#B8804A" stroke-width="2.5" stroke-linecap="round" fill="none"/>
  <path d="M17 78 L83 78" stroke="#B8804A" stroke-width="2.5" stroke-linecap="round" fill="none"/>
  <!-- Diagonal cross-pieces -->
  <path d="M22 17 L50 38" stroke="#D4A870" stroke-width="1.6" opacity="0.65" fill="none"/>
  <path d="M50 17 L22 38" stroke="#D4A870" stroke-width="1.6" opacity="0.65" fill="none"/>
  <path d="M50 17 L78 38" stroke="#D4A870" stroke-width="1.6" opacity="0.65" fill="none"/>
  <path d="M78 17 L50 38" stroke="#D4A870" stroke-width="1.6" opacity="0.65" fill="none"/>
  <path d="M22 38 L50 58" stroke="#D4A870" stroke-width="1.6" opacity="0.65" fill="none"/>
  <path d="M50 38 L22 58" stroke="#D4A870" stroke-width="1.6" opacity="0.65" fill="none"/>
  <path d="M50 38 L78 58" stroke="#D4A870" stroke-width="1.6" opacity="0.65" fill="none"/>
  <path d="M78 38 L50 58" stroke="#D4A870" stroke-width="1.6" opacity="0.65" fill="none"/>
  <path d="M22 58 L50 78" stroke="#D4A870" stroke-width="1.6" opacity="0.65" fill="none"/>
  <path d="M50 58 L22 78" stroke="#D4A870" stroke-width="1.6" opacity="0.65" fill="none"/>
  <path d="M50 58 L78 78" stroke="#D4A870" stroke-width="1.6" opacity="0.65" fill="none"/>
  <path d="M78 58 L50 78" stroke="#D4A870" stroke-width="1.6" opacity="0.65" fill="none"/>
  <!-- Climbing rose canes (winding organically over trellis) -->
  <path d="M22 89 C24 80 28 70 30 60 C32 50 34 40 32 28 C30 20 26 14 22 11" stroke="#5A3520" stroke-width="2.2" stroke-linecap="round" fill="none"/>
  <path d="M50 91 C52 80 54 70 52 58 C50 46 46 36 48 24 C50 16 54 11 50 9" stroke="#5A3520" stroke-width="2.2" stroke-linecap="round" fill="none"/>
  <path d="M78 89 C76 79 72 69 70 57 C68 45 66 34 68 22 C70 14 76 10 78 9" stroke="#5A3520" stroke-width="2.2" stroke-linecap="round" fill="none"/>
  <!-- Cross canes -->
  <path d="M22 71 C30 66 40 63 50 63" stroke="#6B4020" stroke-width="1.6" stroke-linecap="round" fill="none"/>
  <path d="M50 51 C58 49 68 47 78 47" stroke="#6B4020" stroke-width="1.6" stroke-linecap="round" fill="none"/>
  <path d="M22 49 C32 45 42 43 50 45" stroke="#6B4020" stroke-width="1.6" stroke-linecap="round" fill="none"/>
  <path d="M50 30 C60 28 70 26 78 28" stroke="#6B4020" stroke-width="1.6" stroke-linecap="round" fill="none"/>
  <!-- Thorns -->
  <path d="M25 75 L21 72" stroke="#7A4820" stroke-width="1.4" stroke-linecap="round" fill="none"/>
  <path d="M28 63 L32 60" stroke="#7A4820" stroke-width="1.4" stroke-linecap="round" fill="none"/>
  <path d="M52 55 L49 52" stroke="#7A4820" stroke-width="1.3" stroke-linecap="round" fill="none"/>
  <path d="M70 47 L74 44" stroke="#7A4820" stroke-width="1.3" stroke-linecap="round" fill="none"/>
  <path d="M32 38 L28 35" stroke="#7A4820" stroke-width="1.2" stroke-linecap="round" fill="none"/>
  <!-- Dark green rose leaves (compound, 5 leaflets, slightly serrated) -->
  <path d="M24 74 C20 71 14 71 12 75 C15 71 21 71 24 74Z" fill="#2E6020"/>
  <path d="M27 66 C23 63 17 63 15 67 C18 63 24 63 27 66Z" fill="#3A7030"/>
  <path d="M30 55 C26 52 20 52 18 56 C21 52 27 52 30 55Z" fill="#2E6020"/>
  <path d="M32 43 C28 40 22 40 20 44 C23 40 29 40 32 43Z" fill="#3A7030"/>
  <path d="M30 32 C26 29 20 29 18 33 C21 29 27 29 30 32Z" fill="#2E6020"/>
  <path d="M26 21 C22 18 16 18 14 22 C17 18 23 18 26 21Z" fill="#3A7030"/>
  <path d="M76 74 C80 71 86 71 88 75 C85 71 79 71 76 74Z" fill="#2E6020"/>
  <path d="M73 63 C77 60 83 60 85 64 C82 60 76 60 73 63Z" fill="#3A7030"/>
  <path d="M70 51 C74 48 80 48 82 52 C79 48 73 48 70 51Z" fill="#2E6020"/>
  <path d="M68 38 C72 35 78 35 80 39 C77 35 71 35 68 38Z" fill="#3A7030"/>
  <path d="M70 26 C74 23 80 23 82 27 C79 23 73 23 70 26Z" fill="#2E6020"/>
  <path d="M48 61 C44 58 38 58 36 62 C39 58 45 58 48 61Z" fill="#2E6020"/>
  <path d="M50 51 C54 48 60 48 62 52 C59 48 53 48 50 51Z" fill="#3A7030"/>
  <path d="M48 40 C44 37 38 37 36 41 C39 37 45 37 48 40Z" fill="#2E6020"/>
  <path d="M50 29 C54 26 60 26 62 30 C59 26 53 26 50 29Z" fill="#3A7030"/>
  <!-- Rose blooms — layered petals, scattered across trellis -->
  <!-- Rose 1 lower left, full open bloom -->
  <path d="M22 81 C20 78 18 74 20 71 C22 68 26 70 26 73 C26 77 24 81 22 81Z" fill="#C06878"/>
  <path d="M22 81 C19 82 15 80 14 77 C13 73 16 71 19 73Z" fill="#B05868"/>
  <path d="M22 81 C25 82 27 85 26 88 C24 86 23 83 22 81Z" fill="#D07888"/>
  <path d="M22 81 C19 84 17 87 18 90 C19 87 21 84 22 81Z" fill="#C06878"/>
  <path d="M22 81 C25 78 26 75 24 72Z" fill="#D07888"/>
  <circle cx="22" cy="81" r="4.5" fill="#CC7888"/>
  <circle cx="22" cy="81" r="3" fill="#E09898"/>
  <circle cx="22" cy="81" r="1.8" fill="#EAB0A8"/>
  <circle cx="22" cy="81" r="0.9" fill="#D4B828"/>
  <!-- Rose 2 center, medium -->
  <path d="M50 43 C48 40 46 36 48 33 C50 30 54 32 54 35 C54 39 52 43 50 43Z" fill="#CC7888"/>
  <path d="M50 43 C47 44 43 42 42 39 C41 35 44 33 47 35Z" fill="#BC6878"/>
  <path d="M50 43 C53 44 55 47 54 50 C52 48 51 45 50 43Z" fill="#CC7888"/>
  <path d="M50 43 C47 46 45 49 46 52 C47 49 49 46 50 43Z" fill="#BC6878"/>
  <path d="M50 43 C53 40 54 37 52 34Z" fill="#E090A0"/>
  <circle cx="50" cy="43" r="4" fill="#CC7888"/>
  <circle cx="50" cy="43" r="2.5" fill="#E09898"/>
  <circle cx="50" cy="43" r="1.2" fill="#D4B828"/>
  <!-- Rose 3 upper right -->
  <path d="M78 31 C76 28 74 24 76 21 C78 18 82 20 82 23 C82 27 80 31 78 31Z" fill="#BC6878"/>
  <path d="M78 31 C75 32 71 30 70 27 C69 23 72 21 75 23Z" fill="#AC5868"/>
  <path d="M78 31 C81 32 83 35 82 38 C80 36 79 33 78 31Z" fill="#CC7888"/>
  <path d="M78 31 C75 34 73 37 74 40 C75 37 77 34 78 31Z" fill="#BC6878"/>
  <path d="M78 31 C81 28 82 25 80 22Z" fill="#E090A0"/>
  <circle cx="78" cy="31" r="4.5" fill="#CC7888"/>
  <circle cx="78" cy="31" r="3" fill="#E09898"/>
  <circle cx="78" cy="31" r="1.8" fill="#EAB0A8"/>
  <circle cx="78" cy="31" r="0.9" fill="#D4B828"/>
  <!-- Rose 4 left upper -->
  <path d="M24 28 C22 25 22 21 24 19 C26 17 29 19 29 22 C29 26 27 29 24 28Z" fill="#D07888"/>
  <path d="M24 28 C21 29 18 27 18 24 C18 21 21 20 23 22Z" fill="#BC6878"/>
  <path d="M24 28 C27 27 28 24 26 21Z" fill="#E090A0"/>
  <circle cx="24" cy="28" r="4" fill="#CC7888"/>
  <circle cx="24" cy="28" r="2.5" fill="#E09898"/>
  <circle cx="24" cy="28" r="1" fill="#D4B828"/>
  <!-- Rose 5 center right -->
  <path d="M68 61 C66 58 66 54 68 52 C70 50 73 52 73 55 C73 59 71 62 68 61Z" fill="#BC6878"/>
  <path d="M68 61 C65 62 62 60 62 57 C62 54 65 53 67 55Z" fill="#CC7888"/>
  <path d="M68 61 C71 60 72 57 70 54Z" fill="#E090A0"/>
  <circle cx="68" cy="61" r="3.5" fill="#CC7888"/>
  <circle cx="68" cy="61" r="2" fill="#E09898"/>
  <circle cx="68" cy="61" r="0.9" fill="#D4B828"/>
  <!-- Buds (closed) -->
  <path d="M36 22 L36 17" stroke="#6B4020" stroke-width="1.3" stroke-linecap="round" fill="none"/>
  <path d="M36 17 C35 15 35 12 36 11 C37 12 38 15 37 17 C37 15 36 13 36 11Z" fill="#2E6020"/>
  <ellipse cx="36" cy="14" rx="3.2" ry="4.2" fill="#BC6878" opacity="0.9"/>
  <path d="M33 15 C33 13 35 12 36 14Z" fill="#2E6020"/>
  <path d="M39 15 C39 13 37 12 36 14Z" fill="#2E6020"/>
  <path d="M62 16 L62 11" stroke="#6B4020" stroke-width="1.3" stroke-linecap="round" fill="none"/>
  <ellipse cx="62" cy="10" rx="2.8" ry="3.8" fill="#D07888" opacity="0.9"/>
  <path d="M59 11 C59 9 61 8 62 10Z" fill="#2E6020"/>
  <path d="M65 11 C65 9 63 8 62 10Z" fill="#2E6020"/>
</svg>
