<svg xmlns="http://www.w3.org/2000/svg" viewBox="0 0 100 100">
  <!-- Elderflower Tree — Tier 3 Tree -->
  <ellipse cx="50" cy="93" rx="16" ry="4" fill="#8B6914" opacity="0.3"/>
  <!-- Trunk -->
  <path d="M50 91 C50 85 49 78 49 70" stroke="#5C3A18" stroke-width="5.5" stroke-linecap="round" fill="none"/>
  <path d="M49 70 C48 64 47 58 48 52" stroke="#5C3A18" stroke-width="4.5" stroke-linecap="round" fill="none"/>
  <!-- Bark texture -->
  <path d="M49 86 C47 84 47 81 49 79" stroke="#7B4E28" stroke-width="1.4" opacity="0.5" fill="none"/>
  <path d="M50 79 C52 77 52 74 50 72" stroke="#7B4E28" stroke-width="1.4" opacity="0.5" fill="none"/>
  <path d="M48 72 C46 70 46 67 48 65" stroke="#7B4E28" stroke-width="1.2" opacity="0.4" fill="none"/>
  <!-- Main branches (spreading, horizontal character typical of elder) -->
  <path d="M49 65 C44 60 36 55 25 49" stroke="#5C3A18" stroke-width="3.5" stroke-linecap="round" fill="none"/>
  <path d="M49 65 C54 60 62 55 73 49" stroke="#5C3A18" stroke-width="3.5" stroke-linecap="round" fill="none"/>
  <path d="M49 58 C48 52 46 44 44 36" stroke="#7B4E28" stroke-width="2.8" stroke-linecap="round" fill="none"/>
  <path d="M49 58 C52 52 54 44 56 36" stroke="#7B4E28" stroke-width="2.8" stroke-linecap="round" fill="none"/>
  <path d="M49 62 C47 56 43 50 38 44" stroke="#7B4E28" stroke-width="2.2" stroke-linecap="round" fill="none"/>
  <path d="M49 62 C53 56 57 50 62 44" stroke="#7B4E28" stroke-width="2.2" stroke-linecap="round" fill="none"/>
  <!-- Sub-branches -->
  <path d="M29 52 C25 48 19 45 15 46" stroke="#7B4E28" stroke-width="2" stroke-linecap="round" fill="none"/>
  <path d="M29 52 C27 46 27 40 29 34" stroke="#7B4E28" stroke-width="2" stroke-linecap="round" fill="none"/>
  <path d="M69 51 C73 47 79 44 83 45" stroke="#7B4E28" stroke-width="2" stroke-linecap="round" fill="none"/>
  <path d="M69 51 C71 45 71 39 69 33" stroke="#7B4E28" stroke-width="2" stroke-linecap="round" fill="none"/>
  <path d="M44 40 C40 35 36 28 38 22" stroke="#9B6840" stroke-width="1.6" stroke-linecap="round" fill="none"/>
  <path d="M56 40 C60 35 64 28 62 22" stroke="#9B6840" stroke-width="1.6" stroke-linecap="round" fill="none"/>
  <path d="M49 54 C48 48 48 40 50 32" stroke="#9B6840" stroke-width="1.6" stroke-linecap="round" fill="none"/>
  <path d="M38 46 C34 42 30 36 32 30" stroke="#9B6840" stroke-width="1.4" stroke-linecap="round" fill="none"/>
  <path d="M62 46 C66 42 70 36 68 30" stroke="#9B6840" stroke-width="1.4" stroke-linecap="round" fill="none"/>
  <!-- Pinnate elder leaves (dark green, distinctive oval leaflets) -->
  <!-- Left side -->
  <ellipse cx="23" cy="48" rx="5.5" ry="2.7" fill="#2E5E20" transform="rotate(-15,23,48)"/>
  <ellipse cx="17" cy="45" rx="5" ry="2.5" fill="#3A6A2A" transform="rotate(-20,17,45)"/>
  <ellipse cx="27" cy="43" rx="5.5" ry="2.7" fill="#2E5E20" transform="rotate(-10,27,43)"/>
  <ellipse cx="29" cy="37" rx="5" ry="2.5" fill="#3A6A2A" transform="rotate(-14,29,37)"/>
  <ellipse cx="25" cy="31" rx="4.5" ry="2.2" fill="#2E5E20" transform="rotate(-10,25,31)"/>
  <ellipse cx="37" cy="28" rx="5.5" ry="2.7" fill="#3A6A2A" transform="rotate(-5,37,28)"/>
  <ellipse cx="33" cy="34" rx="5" ry="2.5" fill="#2E5E20" transform="rotate(-10,33,34)"/>
  <ellipse cx="39" cy="22" rx="4.5" ry="2.2" fill="#3A6A2A" transform="rotate(-10,39,22)"/>
  <!-- Right side -->
  <ellipse cx="71" cy="48" rx="5.5" ry="2.7" fill="#2E5E20" transform="rotate(15,71,48)"/>
  <ellipse cx="77" cy="45" rx="5" ry="2.5" fill="#3A6A2A" transform="rotate(20,77,45)"/>
  <ellipse cx="65" cy="43" rx="5.5" ry="2.7" fill="#2E5E20" transform="rotate(10,65,43)"/>
  <ellipse cx="67" cy="37" rx="5" ry="2.5" fill="#3A6A2A" transform="rotate(14,67,37)"/>
  <ellipse cx="63" cy="31" rx="4.5" ry="2.2" fill="#2E5E20" transform="rotate(10,63,31)"/>
  <ellipse cx="59" cy="37" rx="5.5" ry="2.7" fill="#3A6A2A" transform="rotate(10,59,37)"/>
  <ellipse cx="61" cy="25" rx="4.5" ry="2.2" fill="#2E5E20" transform="rotate(10,61,25)"/>
  <!-- Center top leaves -->
  <ellipse cx="50" cy="30" rx="5.5" ry="2.7" fill="#3A6A2A"/>
  <ellipse cx="44" cy="31" rx="5" ry="2.5" fill="#2E5E20" transform="rotate(-10,44,31)"/>
  <ellipse cx="56" cy="31" rx="5" ry="2.5" fill="#2E5E20" transform="rotate(10,56,31)"/>
  <ellipse cx="50" cy="23" rx="5" ry="2.5" fill="#3A6A2A"/>
  <ellipse cx="46" cy="17" rx="4.5" ry="2.2" fill="#2E5E20" transform="rotate(-10,46,17)"/>
  <ellipse cx="54" cy="17" rx="4.5" ry="2.2" fill="#3A6A2A" transform="rotate(10,54,17)"/>
  <!-- Elderflower corymbs — flat-topped cream flower clusters (key character) -->
  <!-- Each corymb: ellipse base fill + individual tiny florets with golden centers -->
  <!-- Corymb 1 — far left -->
  <ellipse cx="17" cy="39" rx="11" ry="5.5" fill="#E8D9A8" opacity="0.6"/>
  <circle cx="11" cy="39" r="2.8" fill="#F5EDD5"/>
  <circle cx="11" cy="39" r="1.8" fill="#F0E8C0"/>
  <circle cx="11" cy="39" r="0.6" fill="#D4A820"/>
  <circle cx="16" cy="34" r="2.8" fill="#F5EDD5"/>
  <circle cx="16" cy="34" r="1.8" fill="#F0E8C0"/>
  <circle cx="16" cy="34" r="0.6" fill="#D4A820"/>
  <circle cx="22" cy="36" r="2.8" fill="#F5EDD5"/>
  <circle cx="22" cy="36" r="1.8" fill="#F0E8C0"/>
  <circle cx="22" cy="36" r="0.6" fill="#D4A820"/>
  <circle cx="20" cy="42" r="2.8" fill="#F5EDD5"/>
  <circle cx="20" cy="42" r="1.8" fill="#F0E8C0"/>
  <circle cx="20" cy="42" r="0.6" fill="#D4A820"/>
  <circle cx="13" cy="43" r="2.2" fill="#F5EDD5"/>
  <circle cx="13" cy="43" r="1.4" fill="#F0E8C0"/>
  <circle cx="17" cy="40" r="2.2" fill="#F5EDD5"/>
  <circle cx="17" cy="40" r="1.4" fill="#F0E8C0"/>
  <!-- Corymb 2 — left mid -->
  <ellipse cx="31" cy="27" rx="11" ry="5.5" fill="#E8D9A8" opacity="0.6"/>
  <circle cx="25" cy="27" r="2.8" fill="#F5EDD5"/>
  <circle cx="25" cy="27" r="1.8" fill="#F0E8C0"/>
  <circle cx="25" cy="27" r="0.6" fill="#D4A820"/>
  <circle cx="31" cy="22" r="2.8" fill="#F5EDD5"/>
  <circle cx="31" cy="22" r="1.8" fill="#F0E8C0"/>
  <circle cx="31" cy="22" r="0.6" fill="#D4A820"/>
  <circle cx="37" cy="24" r="2.8" fill="#F5EDD5"/>
  <circle cx="37" cy="24" r="1.8" fill="#F0E8C0"/>
  <circle cx="37" cy="24" r="0.6" fill="#D4A820"/>
  <circle cx="35" cy="30" r="2.8" fill="#F5EDD5"/>
  <circle cx="35" cy="30" r="1.8" fill="#F0E8C0"/>
  <circle cx="35" cy="30" r="0.6" fill="#D4A820"/>
  <circle cx="28" cy="30" r="2.2" fill="#F5EDD5"/>
  <circle cx="28" cy="30" r="1.4" fill="#F0E8C0"/>
  <!-- Corymb 3 — center top (largest, most prominent) -->
  <ellipse cx="50" cy="16" rx="14" ry="7" fill="#E8D9A8" opacity="0.65"/>
  <circle cx="43" cy="15" r="3.2" fill="#F5EDD5"/>
  <circle cx="43" cy="15" r="2.2" fill="#F0E8C0"/>
  <circle cx="43" cy="15" r="0.7" fill="#D4A820"/>
  <circle cx="50" cy="10" r="3.2" fill="#F5EDD5"/>
  <circle cx="50" cy="10" r="2.2" fill="#F0E8C0"/>
  <circle cx="50" cy="10" r="0.7" fill="#D4A820"/>
  <circle cx="57" cy="15" r="3.2" fill="#F5EDD5"/>
  <circle cx="57" cy="15" r="2.2" fill="#F0E8C0"/>
  <circle cx="57" cy="15" r="0.7" fill="#D4A820"/>
  <circle cx="55" cy="21" r="2.8" fill="#F5EDD5"/>
  <circle cx="55" cy="21" r="1.8" fill="#F0E8C0"/>
  <circle cx="55" cy="21" r="0.6" fill="#D4A820"/>
  <circle cx="45" cy="21" r="2.8" fill="#F5EDD5"/>
  <circle cx="45" cy="21" r="1.8" fill="#F0E8C0"/>
  <circle cx="45" cy="21" r="0.6" fill="#D4A820"/>
  <circle cx="50" cy="18" r="2.8" fill="#F5EDD5"/>
  <circle cx="50" cy="18" r="1.8" fill="#F0E8C0"/>
  <!-- Corymb 4 — right mid -->
  <ellipse cx="69" cy="27" rx="11" ry="5.5" fill="#E8D9A8" opacity="0.6"/>
  <circle cx="63" cy="27" r="2.8" fill="#F5EDD5"/>
  <circle cx="63" cy="27" r="1.8" fill="#F0E8C0"/>
  <circle cx="63" cy="27" r="0.6" fill="#D4A820"/>
  <circle cx="69" cy="22" r="2.8" fill="#F5EDD5"/>
  <circle cx="69" cy="22" r="1.8" fill="#F0E8C0"/>
  <circle cx="69" cy="22" r="0.6" fill="#D4A820"/>
  <circle cx="75" cy="24" r="2.8" fill="#F5EDD5"/>
  <circle cx="75" cy="24" r="1.8" fill="#F0E8C0"/>
  <circle cx="75" cy="24" r="0.6" fill="#D4A820"/>
  <circle cx="73" cy="30" r="2.8" fill="#F5EDD5"/>
  <circle cx="73" cy="30" r="1.8" fill="#F0E8C0"/>
  <circle cx="73" cy="30" r="0.6" fill="#D4A820"/>
  <circle cx="66" cy="30" r="2.2" fill="#F5EDD5"/>
  <circle cx="66" cy="30" r="1.4" fill="#F0E8C0"/>
  <!-- Corymb 5 — far right -->
  <ellipse cx="81" cy="39" rx="11" ry="5.5" fill="#E8D9A8" opacity="0.6"/>
  <circle cx="75" cy="39" r="2.8" fill="#F5EDD5"/>
  <circle cx="75" cy="39" r="1.8" fill="#F0E8C0"/>
  <circle cx="75" cy="39" r="0.6" fill="#D4A820"/>
  <circle cx="81" cy="34" r="2.8" fill="#F5EDD5"/>
  <circle cx="81" cy="34" r="1.8" fill="#F0E8C0"/>
  <circle cx="81" cy="34" r="0.6" fill="#D4A820"/>
  <circle cx="87" cy="36" r="2.8" fill="#F5EDD5"/>
  <circle cx="87" cy="36" r="1.8" fill="#F0E8C0"/>
  <circle cx="87" cy="36" r="0.6" fill="#D4A820"/>
  <circle cx="85" cy="42" r="2.8" fill="#F5EDD5"/>
  <circle cx="85" cy="42" r="1.8" fill="#F0E8C0"/>
  <circle cx="85" cy="42" r="0.6" fill="#D4A820"/>
  <circle cx="78" cy="43" r="2.2" fill="#F5EDD5"/>
  <circle cx="78" cy="43" r="1.4" fill="#F0E8C0"/>
</svg>
